<?xml version="1.0" encoding="UTF-8"?><svg id="Layer_2" xmlns="http://www.w3.org/2000/svg" viewBox="0 0 533.92 652.57"><g id="logo"><g id="LWPOLYLINE"><path d="m138.42,0h197.75c10.92,0,19.77,8.85,19.77,19.77v19.77c0,10.92-8.85,19.77-19.77,19.77H118.65V19.77c0-10.92,8.85-19.77,19.77-19.77Z" fill="#d2d2d2"/></g><g id="LWPOLYLINE-2"><path d="m79.1,59.32h39.55v39.55c0,10.92-8.85,19.77-19.77,19.77h-39.55v-39.55c0-10.92,8.85-19.77,19.77-19.77Z" fill="#d2d2d2"/></g><g id="LWPOLYLINE-3"><path d="m19.77,118.65h39.55v392.2c0,12.74-8.85,23.07-19.77,23.07h-19.77c-10.92,0-19.77-10.33-19.77-23.07V141.72c0-12.74,8.85-23.07,19.77-23.07Z" fill="#d2d2d2"/></g><g id="LWPOLYLINE-4"><path d="m435.05,118.65h19.77c10.92,0,19.77,10.33,19.77,23.07v369.13c0,12.74-8.85,23.07-19.77,23.07h-39.55V141.72c0-12.74,8.85-23.07,19.77-23.07Z" fill="#d2d2d2"/></g><g id="LWPOLYLINE-5"><path d="m375.72,533.92h39.55v59.32h-59.32v-39.55c0-10.92,8.85-19.77,19.77-19.77Z" fill="#d2d2d2"/></g><g id="LWPOLYLINE-6"><path d="m138.42,593.25h217.52v39.55c0,10.92-8.85,19.77-19.77,19.77h-197.75c-10.92,0-19.77-8.85-19.77-19.77v-19.77c0-10.92,8.85-19.77,19.77-19.77Z" fill="#d2d2d2"/></g><g id="LWPOLYLINE-7"><path d="m415.27,593.25h98.87c10.92,0,19.77,8.85,19.77,19.77v19.77c0,10.92-8.85,19.77-19.77,19.77h-79.1c-10.92,0-19.77-8.85-19.77-19.77v-39.55Z" fill="#d2d2d2"/></g></g></svg>