<?xml version="1.0" encoding="UTF-8"?><svg id="Layer_2" xmlns="http://www.w3.org/2000/svg" viewBox="0 0 14 13.78"><g id="Layer_1-2"><path d="m13.95,10.08c-.1-.26-.28-.41-.49-.52-.04-.02-.08-.04-.11-.06-.06-.03-.13-.06-.19-.1-.66-.35-1.17-.79-1.53-1.31-.1-.15-.19-.3-.26-.46-.03-.09-.03-.14,0-.18.02-.04.05-.06.09-.09.11-.08.23-.15.31-.2.14-.09.25-.16.33-.21.27-.19.46-.39.58-.61.17-.31.19-.68.06-1.02-.18-.47-.62-.76-1.16-.76-.11,0-.23.01-.34.04-.03,0-.06.01-.09.02,0-.32,0-.66-.03-1-.1-1.18-.51-1.79-.94-2.28-.28-.31-.6-.57-.96-.77-.65-.37-1.39-.56-2.2-.56s-1.54.19-2.19.56c-.36.2-.68.46-.96.77-.43.49-.84,1.11-.94,2.28-.03.34-.04.68-.03,1-.03,0-.06-.01-.09-.02-.11-.03-.23-.04-.34-.04-.54,0-.98.29-1.16.76-.13.33-.11.7.06,1.02.12.23.31.43.58.61.07.05.18.12.33.21.08.05.19.12.3.19.04.03.07.06.1.1.02.05.03.1-.01.19-.07.16-.16.31-.26.45-.35.51-.85.94-1.48,1.29-.34.18-.69.3-.84.7-.11.3-.04.65.24.94.1.11.23.2.36.27.28.15.57.27.88.35.06.02.12.04.18.08.1.09.09.23.23.43.07.1.16.19.26.26.29.2.61.21.96.23.31.01.66.02,1.07.16.17.05.34.16.54.29.48.3,1.14.7,2.25.7s1.77-.41,2.25-.7c.2-.12.37-.23.53-.28.4-.13.75-.15,1.07-.16.34-.01.67-.03.96-.23.12-.09.22-.19.29-.32.1-.17.1-.29.19-.37.05-.04.11-.06.16-.08.31-.08.61-.2.89-.35.14-.08.27-.18.38-.29h0c.28-.29.35-.63.24-.92Zm-.98.53c-.6.33-1,.29-1.3.49-.26.17-.11.53-.3.66-.24.16-.93-.01-1.82.29-.74.24-1.21.95-2.54.95s-1.79-.7-2.54-.95c-.89-.3-1.59-.12-1.82-.29-.19-.13-.04-.5-.3-.66-.31-.2-.71-.16-1.3-.49-.38-.21-.16-.34-.04-.4,2.17-1.05,2.51-2.67,2.53-2.79.02-.15.04-.26-.12-.41-.15-.14-.84-.57-1.03-.7-.31-.22-.45-.44-.35-.71.07-.19.25-.26.43-.26.06,0,.11,0,.17.02.35.08.68.25.88.3.03,0,.05.01.07.01.1,0,.14-.05.13-.17-.02-.38-.08-1.12-.01-1.81.08-.95.39-1.42.75-1.83.18-.2.99-1.07,2.56-1.07s2.39.86,2.56,1.06c.36.41.67.89.75,1.83.06.69,0,1.43-.02,1.81,0,.13.03.17.13.17.03,0,.05,0,.07-.01.19-.05.53-.22.88-.3.06-.01.11-.02.17-.02.18,0,.36.07.43.26.1.27-.04.49-.35.71-.19.13-.88.56-1.03.7-.16.15-.14.26-.12.41.01.12.36,1.74,2.53,2.79.13.06.34.19-.04.4Z" fill="#959595"/></g></svg>