<svg width="14" height="15" viewBox="0 0 14 15" fill="none" xmlns="http://www.w3.org/2000/svg">
<path d="M6.89 0.781738C3.08489 0.781738 0 3.86663 0 7.67174C0 11.4768 3.08489 14.5617 6.89 14.5617C10.6951 14.5617 13.78 11.4768 13.78 7.67174C13.78 3.86663 10.6951 0.781738 6.89 0.781738ZM4.6349 1.90161C3.96382 2.63149 3.43238 3.6813 3.10739 4.91577H1.33895C2.02337 3.54692 3.19925 2.46451 4.6349 1.90161ZM0.689 7.67174C0.689 6.94509 0.825643 6.25264 1.0567 5.60474H2.95398C2.82996 6.25859 2.756 6.94945 2.756 7.67174C2.756 8.39403 2.82996 9.08489 2.95374 9.73874H1.0567C0.825643 9.09084 0.689 8.39842 0.689 7.67174ZM1.33895 10.4277H3.10739C3.43259 11.6622 3.96382 12.712 4.6349 13.4419C3.19925 12.879 2.02337 11.7966 1.33895 10.4277ZM6.5455 13.8401C5.36639 13.618 4.34186 12.2726 3.81752 10.4277H6.5455V13.8401ZM6.5455 9.73874H3.65331C3.52079 9.08833 3.445 8.39312 3.445 7.67174C3.445 6.95036 3.52079 6.25514 3.65331 5.60474H6.5455V9.73874ZM6.5455 4.91574H3.81752C4.34186 3.07083 5.36639 1.72543 6.5455 1.50336V4.91574ZM12.4411 4.91574H10.6726C10.3474 3.68127 9.81618 2.63146 9.1451 1.90158C10.5808 2.46451 11.7566 3.54692 12.4411 4.91574ZM7.2345 1.50336C8.4136 1.72545 9.43814 3.07083 9.96248 4.91574H7.2345V1.50336ZM7.2345 5.60474H10.1267C10.2592 6.25514 10.335 6.95036 10.335 7.67174C10.335 8.39312 10.2592 9.08833 10.1267 9.73874H7.2345V5.60474ZM7.2345 13.8401V10.4277H9.96248C9.43814 12.2726 8.4136 13.618 7.2345 13.8401ZM9.1451 13.4419C9.81618 12.7118 10.3474 11.6622 10.6726 10.4277H12.4411C11.7566 11.7966 10.5808 12.879 9.1451 13.4419ZM10.826 9.73874C10.95 9.08489 11.024 8.39403 11.024 7.67174C11.024 6.94945 10.95 6.25859 10.8263 5.60474H12.7235C12.9544 6.25264 13.091 6.94509 13.091 7.67174C13.091 8.39842 12.9544 9.09084 12.7233 9.73874H10.826Z" fill="#959595"/>
</svg>
